<?xml version="1.0" standalone="no"?>
<!DOCTYPE svg PUBLIC "-//W3C//DTD SVG 20010904//EN"
 "http://www.w3.org/TR/2001/REC-SVG-20010904/DTD/svg10.dtd">
<svg version="1.0" xmlns="http://www.w3.org/2000/svg"
 width="1046.000000pt" height="1046.000000pt" viewBox="0 0 1046.000000 1046.000000"
 preserveAspectRatio="xMidYMid meet">
<metadata>
Created by potrace 1.14, written by Peter Selinger 2001-2017
</metadata>
<g transform="translate(0.000000,1046.000000) scale(0.100000,-0.100000)"
fill="#000000" stroke="none">
<path d="M4959 10256 c-2 -2 -51 -7 -109 -10 -129 -8 -163 -11 -325 -31 -39
-5 -155 -22 -205 -31 -14 -2 -41 -7 -60 -10 -19 -3 -96 -19 -170 -35 -74 -16
-146 -32 -160 -35 -52 -10 -249 -67 -367 -106 -68 -21 -124 -38 -125 -37 -2 2
-16 -4 -33 -13 -16 -9 -75 -33 -130 -53 -117 -44 -158 -61 -307 -129 -31 -14
-67 -30 -80 -36 -13 -5 -84 -42 -158 -81 -297 -157 -585 -346 -854 -559 -167
-133 -507 -457 -633 -605 -29 -33 -63 -73 -78 -90 -14 -16 -36 -43 -48 -59
-12 -16 -29 -36 -38 -46 -9 -10 -36 -44 -60 -76 -23 -33 -45 -61 -48 -64 -23
-20 -234 -340 -306 -465 -86 -148 -191 -353 -252 -495 -29 -69 -58 -134 -63
-145 -51 -113 -189 -545 -215 -673 -2 -9 -10 -47 -19 -83 -8 -37 -18 -80 -21
-95 -11 -59 -35 -200 -40 -239 -4 -22 -8 -51 -11 -65 -2 -14 -6 -52 -9 -85 -3
-33 -8 -69 -10 -80 -26 -124 -26 -766 0 -992 3 -24 7 -64 11 -90 9 -83 31
-232 39 -272 2 -9 15 -72 29 -141 22 -104 39 -173 81 -330 70 -261 200 -591
345 -875 95 -185 139 -265 156 -286 8 -8 14 -19 14 -23 0 -4 8 -19 19 -34 10
-15 53 -80 95 -145 181 -281 384 -527 650 -792 220 -219 253 -249 476 -422 80
-63 150 -117 155 -122 29 -22 263 -175 350 -229 191 -116 484 -266 667 -341
56 -24 112 -47 123 -52 101 -45 530 -186 625 -204 8 -2 15 -4 15 -5 0 -1 11
-4 24 -6 14 -2 50 -11 80 -19 64 -16 205 -46 238 -50 12 -2 34 -6 50 -9 15 -3
44 -8 63 -11 19 -3 46 -7 60 -10 14 -3 45 -7 70 -10 25 -3 54 -8 65 -9 11 -2
54 -7 95 -11 41 -4 86 -9 100 -11 163 -26 801 -26 1040 1 93 11 226 27 250 30
168 26 373 64 450 85 19 5 58 14 85 21 90 21 258 70 385 112 69 22 127 42 130
42 3 1 22 9 44 18 21 9 41 17 44 17 7 0 174 66 231 92 86 38 426 207 476 236
28 16 66 38 85 49 267 152 597 392 850 618 105 94 362 353 442 448 49 56 99
116 113 132 187 219 452 629 601 929 193 387 354 858 420 1226 2 14 9 45 14
70 5 25 12 63 15 85 3 22 8 54 10 70 3 17 7 44 10 60 2 17 7 55 11 85 3 30 8
71 10 90 26 209 25 808 -1 985 -2 17 -9 73 -16 125 -6 52 -12 102 -14 110 -1
8 -6 35 -10 60 -15 97 -13 88 -44 235 -12 55 -35 150 -51 210 -17 61 -32 118
-35 129 -2 10 -16 55 -31 100 -14 44 -27 86 -28 91 -1 6 -4 15 -7 20 -4 6 -14
35 -24 65 -10 30 -23 69 -30 85 -7 17 -25 59 -38 95 -41 104 -64 155 -153 335
-135 276 -206 394 -441 735 -13 19 -27 37 -31 40 -4 3 -27 32 -51 65 -110 148
-250 306 -445 500 -89 88 -179 176 -201 195 -89 77 -172 147 -207 173 -20 14
-42 32 -50 39 -31 30 -243 182 -363 261 -586 384 -1233 642 -1945 776 -98 19
-127 24 -212 36 -18 2 -64 9 -103 14 -38 6 -108 13 -155 16 -47 4 -96 9 -110
11 -28 6 -675 15 -681 10z"/>
</g>
</svg>
